<?xml version="1.0" encoding="UTF-8"?>
<svg inkscape:output_extension="org.inkscape.output.svg.inkscape" inkscape:version="1.0.2 (e86c870879, 2021-01-15, custom)" sodipodi:docname="7ziplogo.svg" sodipodi:version="0.32" version="1.0" viewBox="0 0 283 162" xmlns="http://www.w3.org/2000/svg" xmlns:cc="http://creativecommons.org/ns#" xmlns:dc="http://purl.org/dc/elements/1.1/" xmlns:inkscape="http://www.inkscape.org/namespaces/inkscape" xmlns:rdf="http://www.w3.org/1999/02/22-rdf-syntax-ns#" xmlns:sodipodi="http://sodipodi.sourceforge.net/DTD/sodipodi-0.dtd">
 <sodipodi:namedview id="cvfi" bordercolor="#666666" borderopacity="1.0" gridtolerance="10.0" guidetolerance="10.0" inkscape:current-layer="svg2" inkscape:cx="-88.37351" inkscape:cy="181.94771" inkscape:document-rotation="0" inkscape:pageopacity="0.0" inkscape:pageshadow="2" inkscape:window-height="1014" inkscape:window-maximized="1" inkscape:window-width="1920" inkscape:window-x="0" inkscape:window-y="36" inkscape:zoom="1.1544702" objecttolerance="10.0" pagecolor="#ffffff" showgrid="false"/>
 <metadata>
  <rdf:RDF>
   <cc:Work rdf:about="">
    <dc:format>image/svg+xml</dc:format>
    <dc:type rdf:resource="http://purl.org/dc/dcmitype/StillImage"/>
    <dc:title/>
   </cc:Work>
  </rdf:RDF>
 </metadata>
 <defs>
  <clipPath id="cvfh">
   <path d="m49.91 52.76h168.6v51.02c-43.95 52.89-71.73 113.9-74.31 187.4h-57.68c2.27-63.39 8.836-125.7 57.68-177.5h-94.28v-61z" style="fill-rule:evenodd;fill:#fff" sodipodi:nodetypes="cccccccc"/>
  </clipPath>
  <filter id="cvfd" x="-.5" y="-.5" width="4" height="2">
   <feGaussianBlur stdDeviation="4.0"/>
  </filter>
  <clipPath id="cvfg">
   <path d="m415.9 112.7v175.2h36.59v-175.2h-36.59zm-130.9 1.094v39.94h56.56l-58.78 96.5v38.81h107.6v-38.81h-68.78l71-100.9v-35.5h-107.6zm200.7 0.0625v176.2h39.94v-62.06h26.59c42.59-0.1455 43.72-115.5-2.25-114.2h-64.28zm37.72 37.72h15.59c17.35-0.5945 17.71 38.94 0 36.5l-14.41 1.219-1.188-37.72z" style="fill-rule:evenodd"/>
  </clipPath>
  <filter id="cvfa" x="-.5" y="-.5" width="4" height="2">
   <feGaussianBlur stdDeviation="4.0"/>
  </filter>
  <clipPath id="cvfe">
   <path d="m0-0.0625v345.6h257.8 11.09 334.5v-268.8h-334.5v-76.78h-268.8z"/>
  </clipPath>
  <filter id="cvfc" x="-.5" y="-.5" width="4" height="2">
   <feGaussianBlur stdDeviation="4.0"/>
  </filter>
  <clipPath id="cvff">
   <path transform="rotate(90)" d="m80.59-598.4h261.1v335.7h-261.1v-335.7z" style="fill:#fff"/>
  </clipPath>
  <filter id="cvfb" x="-.5" y="-.5" width="2" height="2">
   <feGaussianBlur stdDeviation="4.0"/>
  </filter>
 </defs>
 <style type="text/css">path {stroke-width:1px;fill:#000;stroke:#000}
.PF {fill:#fff;stroke:#fff}</style>
 <g transform="matrix(.4697 0 0 .4682 .02562 .221)">
  <path d="m0-0.0625v345.6h257.8 11.09 334.5v-268.8h-334.5v-76.78h-268.8z"/>
  <path d="m49.91 52.76h168.6v51.02c-43.95 52.89-71.73 113.9-74.31 187.4h-57.68c2.27-63.39 8.836-125.7 57.68-177.5h-94.28v-61z" style="fill-rule:evenodd;fill:#fff" sodipodi:nodetypes="cccccccc"/>
  <g clip-path="url(#cvfh)">
   <path d="m49.91 52.76h168.6v51.02c-43.95 52.89-71.73 113.9-74.31 187.4" style="fill:none;filter:url(#cvfd);stroke-width:10;stroke:#fff" sodipodi:nodetypes="cccccccc"/>
   <path d="m144.2 291.2h-57.68c2.27-63.39 8.836-125.7 57.68-177.5h-94.28v-61" style="fill:none;filter:url(#cvfd);stroke-width:10;stroke:#000" sodipodi:nodetypes="cccccccc"/>
  </g>
  <g clip-path="url(#cvfe)">
   <path d="m603.4 345.6v-268.8h-334.5v-76.78h-268.8" style="fill:none;filter:url(#cvfc);stroke-width:10;stroke:#fff"/>
   <path d="m0-0.0625v345.6h257.8 11.09 334.5" style="fill:none;filter:url(#cvfc);stroke-width:10;stroke:#000"/>
  </g>
  <g transform="matrix(.9942 0 0 .9852 1.514 5.062)">
   <path transform="rotate(90)" d="m80.59-598.4h261.1v335.7h-261.1v-335.7z" style="fill:#fff"/>
   <path d="m415.9 112.7v175.2h36.59v-175.2h-36.59zm-130.9 1.094v39.94h56.56l-58.78 96.5v38.81h107.6v-38.81h-68.78l71-100.9v-35.5h-107.6zm200.7 0.0625v176.2h39.94v-62.06h26.59c42.59-0.1455 43.72-115.5-2.25-114.2h-64.28zm37.72 37.72h15.59c17.35-0.5945 17.71 38.94 0 36.5l-14.41 1.219-1.188-37.72z" style="fill-rule:evenodd"/>
   <g clip-path="url(#cvfg)">
    <path d="m452.5 287.9v-175.2h-36.59m-25.5 176.3v-38.81h-68.78l71-100.9v-35.5h-107.6m240.7 176.3v-62.06m26.59 0c42.59-0.1455 43.72-115.5-2.25-114.2h-64.28m53.31 74.22-14.41 1.219-1.188-37.72" style="fill:none;filter:url(#cvfa);stroke-width:10;stroke:#fff"/>
    <path d="m415.9 112.7v175.2h36.59m-167.5-174.2v39.94h56.56l-58.78 96.5v38.81h107.6m95.34-175.2v176.2h39.94m0-62.06h26.59m-28.81-76.44h15.59c17.35-0.5945 17.71 38.94 0 36.5" style="fill:none;filter:url(#cvfa);stroke-width:10;stroke:#000"/>
   </g>
   <g clip-path="url(#cvff)">
    <path transform="rotate(90)" d="m80.59-598.4h261.1m-261.1 335.7v-335.7" style="fill:none;filter:url(#cvfb);stroke-width:10;stroke:#fff"/>
    <path transform="rotate(90)" d="m341.7-598.4v335.7h-261.1" style="fill:none;filter:url(#cvfb);stroke-width:10;stroke:#000"/>
   </g>
  </g>
 </g>
</svg>
